<svg xmlns="http://www.w3.org/2000/svg" width="19" height="15" viewBox="0 0 19 15">
                        <g fill="none" fill-rule="evenodd">
                            <path fill="#FF5400" d="M.5 14.049h18.038v-1.5H.5z"></path>
                            <g fill="#C28032">
                                <path d="M10.682 1.384C10.682.742 10.16.22 9.519.22a1.164 1.164 0 0 0 0 2.327c.641 0 1.163-.522 1.163-1.163M6.607 6.161c-.486.378-1.96 1.888-2.329 2.55-.34-.326-.168-.16-.347-.346.429-.742 1.912-2.257 2.421-2.654l.255.45zm11.185 5.79c-.22-5.027-3.853-8.964-8.273-8.964s-8.052 3.937-8.272 8.964h16.545z"></path>
                            </g>
                        </g>
                    </svg>