<svg xmlns="http://www.w3.org/2000/svg" width="20" height="18" viewBox="0 0 20 18">
                        <g fill="none" fill-rule="evenodd">
                            <path fill="#FA8003" d="M10.18 4.348L10.18 9.056 13.478 12.354 14.708 11.124 11.919 8.336 11.919 4.348z"></path>
                            <path fill="#B98142" d="M11.05 0C6.897 0 3.428 2.915 2.565 6.808L1.23 5.472 0 6.702l3.223 3.223 3.224-3.223-1.23-1.23-.61.61C5.643 3.54 8.138 1.74 11.05 1.74c3.835 0 6.956 3.121 6.956 6.957 0 3.835-3.12 6.956-6.956 6.956-1.919 0-3.658-.78-4.917-2.04l-1.232 1.232c1.574 1.574 3.748 2.547 6.149 2.547 4.801 0 8.695-3.894 8.695-8.695C19.745 3.893 15.851 0 11.05 0z"></path>
                        </g>
                    </svg>