<svg xmlns="http://www.w3.org/2000/svg" width="14" height="15" viewBox="0 0 14 15">
                        <path fill="#747474" fill-rule="evenodd" stroke="#747474" stroke-width=".4" d="M7.205 1.664l5.613 4.21v7.535H9.42V8.682a.307.307 0 0 0-.295-.296h-3.84a.307.307 0 0 0-.296.296v4.727H1.59V5.875l5.614-4.21zm-.176-.609L1.12 5.487a.3.3 0 0 0-.12.24v7.978c0 .154.14.295.295.295h3.99c.154 0 .295-.14.295-.295V8.977h3.25v4.728c0 .154.14.295.295.295h3.989c.154 0 .295-.14.295-.295V5.727a.303.303 0 0 0-.12-.24L7.38 1.055c-.135-.08-.233-.067-.35 0z"></path>
                    </svg>