<svg xmlns="http://www.w3.org/2000/svg" width="12" height="20" viewBox="0 0 12 20">
                        <g fill="none" fill-rule="evenodd">
                            <path fill="#CC7D14" d="M6.034 0C9.318 0 12 2.483 12 5.587 12 6.828 11.53 8.07 10.793 9L5.966 14.96 1.274 9A5.295 5.295 0 0 1 0 5.588C0 2.483 2.682 0 6.034 0zm0 3.587c1.185 0 2.16.862 2.16 2 0 1.098-.975 2-2.16 2-1.229 0-2.16-.902-2.16-2 0-1.138.931-2 2.16-2z"></path>
                            <ellipse cx="6.166" cy="18.138" fill="#FF5400" rx="4.966" ry="1.471"></ellipse>
                        </g>
                    </svg>